<svg width="100%" height="100%" viewBox="0 0 1000 1000" version="1.1" xmlns="http://www.w3.org/2000/svg" xmlns:xlink="http://www.w3.org/1999/xlink" xml:space="preserve" xmlns:serif="http://www.serif.com/" style="fill-rule:evenodd;clip-rule:evenodd;stroke-linejoin:round;stroke-miterlimit:2;">
    <g id="logo" transform="matrix(4,0,0,4,0,0)">
        <rect x="0" y="0" width="250" height="250" style="fill:none;"/>
        <clipPath id="_clip1">
            <rect x="0" y="0" width="250" height="250"/>
        </clipPath>
        <g clip-path="url(#_clip1)">
            <g transform="matrix(12.5,0,0,12.5,125.181,124.606)">
                <g transform="matrix(1,0,0,1,-10,-10)">
                    <clipPath id="_clip2">
                        <rect x="0" y="0" width="20" height="20"/>
                    </clipPath>
                    <g clip-path="url(#_clip2)">
                        <g transform="matrix(1,0,0,1,-84,-7399)">
                            <g id="Page-1">
                                <g id="Dribbble-Light-Preview">
                                    <g id="icons">
                                        <path id="github---142-" serif:id="github-[#142]" d="M94,7399C99.523,7399 104,7403.59 104,7409.25C104,7413.78 101.138,7417.62 97.167,7418.98C96.66,7419.08 96.48,7418.76 96.48,7418.49C96.48,7418.15 96.492,7417.05 96.492,7415.68C96.492,7414.72 96.172,7414.1 95.813,7413.78C98.04,7413.52 100.38,7412.66 100.38,7408.72C100.38,7407.6 99.992,7406.68 99.35,7405.97C99.454,7405.71 99.797,7404.66 99.252,7403.25C99.252,7403.25 98.414,7402.98 96.505,7404.3C95.706,7404.08 94.85,7403.96 94,7403.96C93.15,7403.96 92.295,7404.08 91.497,7404.3C89.586,7402.98 88.746,7403.25 88.746,7403.25C88.203,7404.66 88.546,7405.71 88.649,7405.97C88.01,7406.68 87.619,7407.6 87.619,7408.72C87.619,7412.65 89.954,7413.53 92.175,7413.78C91.889,7414.04 91.63,7414.49 91.54,7415.16C90.97,7415.42 89.522,7415.87 88.63,7414.3C88.63,7414.3 88.101,7413.32 87.097,7413.25C87.097,7413.25 86.122,7413.23 87.029,7413.87C87.029,7413.87 87.684,7414.19 88.139,7415.37C88.139,7415.37 88.726,7417.2 91.508,7416.58C91.513,7417.44 91.522,7418.24 91.522,7418.49C91.522,7418.76 91.338,7419.08 90.839,7418.98C86.865,7417.63 84,7413.78 84,7409.25C84,7403.59 88.478,7399 94,7399"/>
                                    </g>
                                </g>
                            </g>
                        </g>
                    </g>
                </g>
            </g>
        </g>
    </g>
</svg>
