
<svg width="100%" height="100%" viewBox="0 0 500 500" version="1.1" xmlns="http://www.w3.org/2000/svg" xmlns:xlink="http://www.w3.org/1999/xlink" xml:space="preserve" xmlns:serif="http://www.serif.com/" style="fill-rule:evenodd;clip-rule:evenodd;stroke-linejoin:round;stroke-miterlimit:2;">
    <g id="logo" transform="matrix(2,0,0,2,0,0)">
        <rect x="0" y="0" width="500" height="500" style="fill:none;"/>
        <path d="M250,25C250,11.202 238.798,0 225,0L25,0C11.202,0 0,11.202 0,25L0,225C0,238.798 11.202,250 25,250L225,250C238.798,250 250,238.798 250,225L250,25ZM178.06,144.719L178.06,213.579L215.233,213.579L215.233,148.131L215.243,148.132L215.297,131.969C215.455,132.048 214.211,89.28 173.303,89.364C172.005,89.154 145.341,88.316 135.242,109L135.242,93L99.334,93L99.334,213.579L135.242,213.579L135.242,148.024C135.396,142.576 137.358,123.854 157,123C175.023,122.216 177.732,139.24 178.06,144.719ZM75.633,93L38.32,93L38.32,213.32L75.633,213.32L75.633,93ZM56.794,32.695C68.943,32.695 78.807,42.659 78.807,54.931C78.807,67.204 68.943,77.167 56.794,77.167C44.644,77.167 34.781,67.204 34.781,54.931C34.781,42.659 44.644,32.695 56.794,32.695Z"/>
    </g>
</svg>
