<svg width="100%" height="100%" viewBox="0 0 1000 1000" version="1.1" xml:space="preserve" xmlns:serif="http://www.serif.com/" style="fill-rule:evenodd;clip-rule:evenodd;stroke-linejoin:round;stroke-miterlimit:2;">
    <g id="logo" transform="matrix(4,0,0,4,0,0)">
        <rect x="0" y="0" width="250" height="250" style="fill:none;"/>
        <g id="twitter.svg" transform="matrix(12.5,0,0,12.5,125,125)">
            <g transform="matrix(1,0,0,1,-10,-8)">
                <g transform="matrix(1,0,0,1,-4,-7361)">
                    <g id="Page-1">
                        <g id="twitter">
                            <g id="icons">
                                <path d="M10.29,7377C17.837,7377 21.965,7370.84 21.965,7365.51C21.965,7365.33 21.965,7365.16 21.953,7364.98C22.756,7364.41 23.449,7363.7 24,7362.89C23.252,7363.22 22.457,7363.43 21.644,7363.53C22.5,7363.02 23.141,7362.23 23.448,7361.29C22.642,7361.76 21.761,7362.1 20.842,7362.27C19.288,7360.65 16.689,7360.57 15.036,7362.1C13.971,7363.08 13.518,7364.56 13.849,7365.96C10.55,7365.8 7.476,7364.26 5.392,7361.74C4.303,7363.58 4.86,7365.94 6.663,7367.13C6.01,7367.11 5.371,7366.94 4.8,7366.62L4.8,7366.68C4.801,7368.6 6.178,7370.26 8.092,7370.64C7.488,7370.8 6.854,7370.82 6.24,7370.7C6.777,7372.35 8.318,7373.48 10.073,7373.51C8.62,7374.64 6.825,7375.25 4.977,7375.24C4.651,7375.24 4.325,7375.22 4,7375.19C5.877,7376.37 8.06,7377 10.29,7377"/>
                            </g>
                        </g>
                    </g>
                </g>
            </g>
        </g>
    </g>
</svg>
