<?xml version="1.0" encoding="UTF-8" standalone="no"?>
<!DOCTYPE svg PUBLIC "-//W3C//DTD SVG 1.1//EN" "http://www.w3.org/Graphics/SVG/1.1/DTD/svg11.dtd">
<svg width="100%" height="100%" viewBox="0 0 850 850" version="1.1" xmlns="http://www.w3.org/2000/svg" xmlns:xlink="http://www.w3.org/1999/xlink" xml:space="preserve" xmlns:serif="http://www.serif.com/" style="fill-rule:evenodd;clip-rule:evenodd;stroke-linecap:round;stroke-linejoin:round;stroke-miterlimit:1.5;">
    <rect id="Artboard1" x="0" y="0" width="850" height="850" style="fill:none;"/>
    <g id="Artboard11" serif:id="Artboard1">
        <g transform="matrix(1,0,0,1,440,460)">
            <g transform="matrix(1,0,0,1,-350,-350)">
                <g>
                    <path d="M350,15.168C292.25,15.168 245,63 245,121.338L245,165.088L163.332,165.084C153.414,165.084 145.832,172.666 145.832,182.584L145.832,456.754C145.832,505.172 184.914,544.254 233.332,544.254L466.662,544.254C515.08,544.254 554.162,505.172 554.162,456.754L554.162,182.584C554.162,172.666 546.58,165.084 536.662,165.084L454.998,165.084L454.998,121.334C454.998,63.002 407.748,15.174 349.998,15.174L350,15.168ZM280,121.328C280,82.246 311.5,50.16 350,50.16C388.5,50.16 420,82.242 420,121.328L420,165.078L280,165.078L280,121.328ZM519.17,200.664L519.17,457.334C519.17,486.502 495.838,509.834 466.67,509.834L233.33,509.83C204.162,509.83 180.83,486.498 180.83,457.33L180.83,200.66L244.998,200.66L244.998,230.992C244.998,240.91 252.58,248.492 262.498,248.492C272.416,248.492 279.998,240.91 279.998,230.992L279.998,200.66L419.998,200.66L419.998,230.992C419.998,240.91 427.58,248.492 437.498,248.492C447.416,248.492 454.998,240.91 454.998,230.992L454.998,200.66L519.17,200.664Z" style="fill-rule:nonzero;"/>
                    <g id="u" transform="matrix(1,0,0,1,70,647.5)">
                        <path d="M19.547,-1.172C18.535,-0.648 17.485,-0.258 16.391,0C15.297,0.27 14.156,0.406 12.969,0.406C9.426,0.406 6.617,-0.582 4.547,-2.563C2.484,-4.539 1.453,-7.223 1.453,-10.609C1.453,-14.016 2.484,-16.707 4.547,-18.688C6.617,-20.664 9.426,-21.656 12.969,-21.656C14.156,-21.656 15.297,-21.52 16.391,-21.25C17.485,-20.988 18.535,-20.594 19.547,-20.063L19.547,-15.672C18.524,-16.36 17.52,-16.863 16.531,-17.188C15.551,-17.508 14.516,-17.672 13.422,-17.672C11.461,-17.672 9.922,-17.047 8.797,-15.797C7.68,-14.547 7.125,-12.816 7.125,-10.609C7.125,-8.422 7.68,-6.695 8.797,-5.438C9.922,-4.188 11.461,-3.563 13.422,-3.563C14.516,-3.563 15.551,-3.723 16.531,-4.047C17.52,-4.367 18.524,-4.875 19.547,-5.563L19.547,-1.172Z" style="fill-rule:nonzero;"/>
                    </g>
                    <g id="d" transform="matrix(1,0,0,1,91.4062,647.5)">
                        <path d="M14.297,-11.609C13.848,-11.816 13.406,-11.968 12.969,-12.062C12.531,-12.164 12.086,-12.218 11.641,-12.218C10.328,-12.218 9.317,-11.796 8.61,-10.953C7.899,-10.117 7.547,-8.914 7.547,-7.343L7.547,0L2.453,0L2.453,-15.953L7.547,-15.953L7.547,-13.328C8.203,-14.378 8.953,-15.144 9.797,-15.624C10.649,-16.101 11.672,-16.343 12.86,-16.343C13.035,-16.343 13.223,-16.332 13.422,-16.312C13.617,-16.3 13.906,-16.269 14.281,-16.218L14.297,-11.609Z" style="fill-rule:nonzero;"/>
                    </g>
                    <g id="a" transform="matrix(1,0,0,1,105.789,647.5)">
                        <path d="M18.375,-8.016L18.375,-6.562L6.453,-6.562C6.578,-5.363 7.008,-4.469 7.75,-3.875C8.488,-3.281 9.523,-2.984 10.859,-2.984C11.93,-2.984 13.031,-3.141 14.156,-3.453C15.281,-3.773 16.437,-4.258 17.625,-4.906L17.625,-0.969C16.414,-0.508 15.207,-0.164 14,0.062C12.789,0.289 11.586,0.406 10.391,0.406C7.492,0.406 5.242,-0.32 3.641,-1.781C2.047,-3.25 1.25,-5.312 1.25,-7.969C1.25,-10.563 2.035,-12.602 3.609,-14.094C5.18,-15.594 7.344,-16.344 10.094,-16.344C12.602,-16.344 14.609,-15.586 16.109,-14.078C17.617,-12.566 18.375,-10.547 18.375,-8.016ZM13.141,-9.719C13.141,-10.687 12.852,-11.469 12.281,-12.062C11.719,-12.656 10.984,-12.953 10.078,-12.953C9.086,-12.953 8.281,-12.672 7.656,-12.109C7.039,-11.555 6.66,-10.758 6.516,-9.719L13.141,-9.719Z" style="fill-rule:nonzero;"/>
                    </g>
                    <g id="j" transform="matrix(1,0,0,1,125.57,647.5)">
                        <path d="M9.594,-7.172C8.531,-7.172 7.727,-6.988 7.188,-6.625C6.656,-6.27 6.391,-5.742 6.391,-5.047C6.391,-4.398 6.602,-3.895 7.031,-3.531C7.469,-3.164 8.07,-2.984 8.844,-2.984C9.801,-2.984 10.609,-3.328 11.266,-4.016C11.922,-4.703 12.25,-5.563 12.25,-6.594L12.25,-7.172L9.594,-7.172ZM17.391,-9.109L17.391,0L12.25,0L12.25,-2.359C11.563,-1.391 10.789,-0.688 9.938,-0.25C9.082,0.188 8.047,0.406 6.828,0.406C5.172,0.406 3.828,-0.07 2.797,-1.031C1.766,-2 1.25,-3.25 1.25,-4.781C1.25,-6.656 1.891,-8.031 3.172,-8.906C4.461,-9.781 6.488,-10.219 9.25,-10.219L12.25,-10.219L12.25,-10.609C12.25,-11.422 11.93,-12.016 11.297,-12.391C10.66,-12.766 9.664,-12.953 8.313,-12.953C7.227,-12.953 6.211,-12.844 5.266,-12.625C4.328,-12.406 3.457,-12.078 2.656,-11.641L2.656,-15.531C3.738,-15.789 4.832,-15.988 5.937,-16.125C7.039,-16.269 8.144,-16.344 9.25,-16.344C12.125,-16.344 14.195,-15.773 15.469,-14.641C16.75,-13.504 17.391,-11.66 17.391,-9.109L17.391,-9.109Z" style="fill-rule:nonzero;"/>
                    </g>
                    <g id="c" transform="matrix(1,0,0,1,145.254,647.5)">
                        <path d="M8.016,-20.484L8.016,-15.953L13.281,-15.953L13.281,-12.312L8.016,-12.312L8.016,-5.547C8.016,-4.804 8.16,-4.301 8.453,-4.031C8.754,-3.769 9.344,-3.64 10.219,-3.64L12.828,-3.64L12.828,0L8.469,0C6.445,0 5.016,-0.414 4.172,-1.25C3.336,-2.094 2.922,-3.523 2.922,-5.547L2.922,-12.312L0.391,-12.312L0.391,-15.953L2.922,-15.953L2.922,-20.484L8.016,-20.484Z" style="fill-rule:nonzero;"/>
                    </g>
                    <g id="a1" serif:id="a" transform="matrix(1,0,0,1,159.195,647.5)">
                        <path d="M18.375,-8.016L18.375,-6.562L6.453,-6.562C6.578,-5.363 7.008,-4.469 7.75,-3.875C8.488,-3.281 9.523,-2.984 10.859,-2.984C11.93,-2.984 13.031,-3.141 14.156,-3.453C15.281,-3.773 16.437,-4.258 17.625,-4.906L17.625,-0.969C16.414,-0.508 15.207,-0.164 14,0.062C12.789,0.289 11.586,0.406 10.391,0.406C7.492,0.406 5.242,-0.32 3.641,-1.781C2.047,-3.25 1.25,-5.312 1.25,-7.969C1.25,-10.563 2.035,-12.602 3.609,-14.094C5.18,-15.594 7.344,-16.344 10.094,-16.344C12.602,-16.344 14.609,-15.586 16.109,-14.078C17.617,-12.566 18.375,-10.547 18.375,-8.016ZM13.141,-9.719C13.141,-10.687 12.852,-11.469 12.281,-12.062C11.719,-12.656 10.984,-12.953 10.078,-12.953C9.086,-12.953 8.281,-12.672 7.656,-12.109C7.039,-11.555 6.66,-10.758 6.516,-9.719L13.141,-9.719Z" style="fill-rule:nonzero;"/>
                    </g>
                    <g id="i" transform="matrix(1,0,0,1,178.977,647.5)">
                        <path d="M13.297,-13.625L13.297,-22.156L18.438,-22.156L18.438,-0L13.297,-0L13.297,-2.313C12.598,-1.363 11.828,-0.672 10.985,-0.235C10.141,0.191 9.16,0.406 8.047,0.406C6.078,0.406 4.461,-0.367 3.203,-1.922C1.942,-3.485 1.313,-5.5 1.313,-7.969C1.313,-10.426 1.942,-12.438 3.203,-14C4.461,-15.563 6.078,-16.344 8.047,-16.344C9.149,-16.344 10.125,-16.117 10.969,-15.672C11.82,-15.235 12.598,-14.551 13.297,-13.625L13.297,-13.625ZM9.938,-3.297C11.031,-3.297 11.863,-3.692 12.438,-4.485C13.008,-5.285 13.297,-6.445 13.297,-7.969C13.297,-9.477 13.008,-10.633 12.438,-11.438C11.863,-12.238 11.031,-12.641 9.938,-12.641C8.852,-12.641 8.024,-12.238 7.453,-11.438C6.879,-10.633 6.594,-9.477 6.594,-7.969C6.594,-6.445 6.879,-5.285 7.453,-4.485C8.024,-3.692 8.852,-3.297 9.938,-3.297Z" style="fill-rule:nonzero;"/>
                    </g>
                    <g id="h" transform="matrix(1,0,0,1,210.008,647.5)">
                        <path d="M10.938,-3.297C12.032,-3.297 12.864,-3.691 13.438,-4.484C14.008,-5.285 14.297,-6.445 14.297,-7.969C14.297,-9.477 14.008,-10.633 13.438,-11.438C12.864,-12.238 12.032,-12.641 10.938,-12.641C9.844,-12.641 9.004,-12.238 8.422,-11.438C7.836,-10.633 7.547,-9.477 7.547,-7.969C7.547,-6.457 7.836,-5.301 8.422,-4.5C9.004,-3.695 9.844,-3.297 10.938,-3.297ZM7.547,-13.625C8.254,-14.551 9.036,-15.234 9.891,-15.672C10.743,-16.117 11.723,-16.344 12.829,-16.344C14.798,-16.344 16.411,-15.562 17.673,-14C18.942,-12.437 19.579,-10.426 19.579,-7.969C19.579,-5.5 18.942,-3.484 17.673,-1.922C16.411,-0.367 14.798,0.406 12.829,0.406C11.723,0.406 10.743,0.188 9.891,-0.25C9.036,-0.687 8.255,-1.375 7.547,-2.312L7.547,0L2.454,0L2.454,-22.156L7.547,-22.156L7.547,-13.625Z" style="fill-rule:nonzero;"/>
                    </g>
                    <g id="g" transform="matrix(1,0,0,1,230.887,647.5)">
                        <path d="M0.359,-15.953L5.453,-15.953L9.75,-5.125L13.391,-15.953L18.484,-15.953L11.781,1.516C11.102,3.286 10.317,4.524 9.422,5.235C8.524,5.942 7.344,6.297 5.875,6.297L2.922,6.297L2.922,2.954L4.516,2.954C5.379,2.954 6.008,2.813 6.406,2.532C6.801,2.258 7.109,1.766 7.328,1.047L7.469,0.61L0.359,-15.953Z" style="fill-rule:nonzero;"/>
                    </g>
                    <g id="f" transform="matrix(1,0,0,1,260.055,647.5)">
                        <path d="M15.578,-3.875L7.015,-3.875L5.656,0L0.14,0L8.015,-21.266L14.562,-21.266L22.437,0L16.922,0L15.578,-3.875ZM8.375,-7.813L14.203,-7.813L11.297,-16.281L8.375,-7.813Z" style="fill-rule:nonzero;"/>
                    </g>
                    <g id="t" transform="matrix(1,0,0,1,282.625,647.5)">
                        <path d="M1.031,-15.953L5.984,-15.953L8.656,-4.953L11.359,-15.953L15.609,-15.953L18.297,-5.078L20.984,-15.953L25.937,-15.953L21.734,0L16.172,0L13.469,-10.969L10.797,0L5.234,0L1.031,-15.953Z" style="fill-rule:nonzero;"/>
                    </g>
                    <g id="a2" serif:id="a" transform="matrix(1,0,0,1,309.57,647.5)">
                        <path d="M18.375,-8.016L18.375,-6.562L6.453,-6.562C6.578,-5.363 7.008,-4.469 7.75,-3.875C8.488,-3.281 9.523,-2.984 10.859,-2.984C11.93,-2.984 13.031,-3.141 14.156,-3.453C15.281,-3.773 16.437,-4.258 17.625,-4.906L17.625,-0.969C16.414,-0.508 15.207,-0.164 14,0.062C12.789,0.289 11.586,0.406 10.391,0.406C7.492,0.406 5.242,-0.32 3.641,-1.781C2.047,-3.25 1.25,-5.312 1.25,-7.969C1.25,-10.563 2.035,-12.602 3.609,-14.094C5.18,-15.594 7.344,-16.344 10.094,-16.344C12.602,-16.344 14.609,-15.586 16.109,-14.078C17.617,-12.566 18.375,-10.547 18.375,-8.016ZM13.141,-9.719C13.141,-10.687 12.852,-11.469 12.281,-12.062C11.719,-12.656 10.984,-12.953 10.078,-12.953C9.086,-12.953 8.281,-12.672 7.656,-12.109C7.039,-11.555 6.66,-10.758 6.516,-9.719L13.141,-9.719Z" style="fill-rule:nonzero;"/>
                    </g>
                    <g id="s" transform="matrix(1,0,0,1,329.352,647.5)">
                        <path d="M14.906,-15.453L14.906,-11.578C13.82,-12.035 12.769,-12.379 11.75,-12.609C10.738,-12.836 9.781,-12.953 8.875,-12.953C7.906,-12.953 7.187,-12.828 6.719,-12.578C6.25,-12.336 6.015,-11.969 6.015,-11.469C6.015,-11.062 6.191,-10.75 6.547,-10.531C6.898,-10.312 7.539,-10.148 8.469,-10.047L9.359,-9.906C11.973,-9.582 13.726,-9.039 14.625,-8.281C15.531,-7.519 15.984,-6.328 15.984,-4.703C15.984,-3.004 15.351,-1.726 14.094,-0.875C12.844,-0.019 10.973,0.406 8.484,0.406C7.43,0.406 6.344,0.32 5.219,0.156C4.094,0 2.937,-0.242 1.75,-0.578L1.75,-4.453C2.769,-3.961 3.812,-3.594 4.875,-3.344C5.945,-3.101 7.035,-2.984 8.14,-2.984C9.129,-2.984 9.875,-3.117 10.375,-3.391C10.883,-3.66 11.14,-4.066 11.14,-4.609C11.14,-5.066 10.961,-5.406 10.609,-5.625C10.265,-5.851 9.578,-6.031 8.547,-6.156L7.656,-6.266C5.383,-6.547 3.789,-7.07 2.875,-7.844C1.969,-8.613 1.516,-9.785 1.516,-11.359C1.516,-13.047 2.094,-14.297 3.25,-15.109C4.406,-15.93 6.18,-16.344 8.578,-16.344C9.516,-16.344 10.5,-16.269 11.531,-16.125C12.57,-15.976 13.695,-15.754 14.906,-15.453L14.906,-15.453Z" style="fill-rule:nonzero;"/>
                    </g>
                    <g id="b" transform="matrix(1,0,0,1,346.715,647.5)">
                        <path d="M10.047,-12.688C8.91,-12.688 8.047,-12.282 7.453,-11.469C6.859,-10.657 6.563,-9.489 6.563,-7.969C6.563,-6.438 6.859,-5.266 7.453,-4.454C8.047,-3.641 8.91,-3.235 10.047,-3.235C11.149,-3.235 11.992,-3.641 12.578,-4.454C13.172,-5.266 13.469,-6.438 13.469,-7.969C13.469,-9.489 13.172,-10.657 12.578,-11.469C11.992,-12.282 11.149,-12.688 10.047,-12.688ZM10.047,-16.344C12.785,-16.344 14.926,-15.598 16.469,-14.11C18.008,-12.629 18.781,-10.583 18.781,-7.969C18.781,-5.344 18.008,-3.289 16.469,-1.813C14.926,-0.332 12.785,0.406 10.047,0.406C7.285,0.406 5.129,-0.332 3.578,-1.813C2.024,-3.29 1.25,-5.344 1.25,-7.969C1.25,-10.583 2.024,-12.629 3.578,-14.11C5.129,-15.598 7.285,-16.344 10.047,-16.344Z" style="fill-rule:nonzero;"/>
                    </g>
                    <g id="e" transform="matrix(1,0,0,1,366.75,647.5)">
                        <path d="M17.234,-13.297C17.879,-14.285 18.644,-15.039 19.531,-15.563C20.425,-16.082 21.406,-16.344 22.468,-16.344C24.3,-16.344 25.695,-15.774 26.656,-14.641C27.613,-13.516 28.093,-11.875 28.093,-9.719L28.093,-0L22.968,-0L22.968,-8.703C22.976,-8.836 22.984,-9.023 22.984,-9.266C22.984,-10.398 22.816,-11.219 22.484,-11.719C22.16,-12.227 21.625,-12.484 20.875,-12.484C19.906,-12.484 19.156,-12.082 18.625,-11.281C18.101,-10.488 17.832,-9.336 17.812,-7.828L17.812,-0L12.687,-0L12.687,-8.313C12.687,-10.082 12.535,-11.219 12.234,-11.719C11.929,-12.227 11.39,-12.484 10.609,-12.484C9.629,-12.484 8.875,-12.082 8.343,-11.281C7.812,-10.477 7.547,-9.332 7.547,-7.844L7.547,-0L2.422,-0L2.422,-15.953L7.547,-15.953L7.547,-13.625C8.172,-14.519 8.89,-15.195 9.703,-15.656C10.515,-16.113 11.41,-16.344 12.39,-16.344C13.492,-16.344 14.468,-16.078 15.312,-15.547C16.156,-15.015 16.797,-14.266 17.234,-13.297L17.234,-13.297Z" style="fill-rule:nonzero;"/>
                    </g>
                    <g id="a3" serif:id="a" transform="matrix(1,0,0,1,397.141,647.5)">
                        <path d="M18.375,-8.016L18.375,-6.562L6.453,-6.562C6.578,-5.363 7.008,-4.469 7.75,-3.875C8.488,-3.281 9.523,-2.984 10.859,-2.984C11.93,-2.984 13.031,-3.141 14.156,-3.453C15.281,-3.773 16.437,-4.258 17.625,-4.906L17.625,-0.969C16.414,-0.508 15.207,-0.164 14,0.062C12.789,0.289 11.586,0.406 10.391,0.406C7.492,0.406 5.242,-0.32 3.641,-1.781C2.047,-3.25 1.25,-5.312 1.25,-7.969C1.25,-10.563 2.035,-12.602 3.609,-14.094C5.18,-15.594 7.344,-16.344 10.094,-16.344C12.602,-16.344 14.609,-15.586 16.109,-14.078C17.617,-12.566 18.375,-10.547 18.375,-8.016ZM13.141,-9.719C13.141,-10.687 12.852,-11.469 12.281,-12.062C11.719,-12.656 10.984,-12.953 10.078,-12.953C9.086,-12.953 8.281,-12.672 7.656,-12.109C7.039,-11.555 6.66,-10.758 6.516,-9.719L13.141,-9.719Z" style="fill-rule:nonzero;"/>
                    </g>
                    <g id="r" transform="matrix(1,0,0,1,70,676.668)">
                        <path d="M12.953,-22.156L12.953,-18.812L10.125,-18.812C9.406,-18.812 8.898,-18.679 8.609,-18.422C8.328,-18.16 8.187,-17.707 8.187,-17.062L8.187,-15.953L12.547,-15.953L12.547,-12.312L8.187,-12.312L8.187,-0L3.094,-0L3.094,-12.312L0.562,-12.312L0.562,-15.953L3.094,-15.953L3.094,-17.062C3.094,-18.8 3.578,-20.082 4.547,-20.906C5.515,-21.738 7.016,-22.156 9.047,-22.156L12.953,-22.156Z" style="fill-rule:nonzero;"/>
                    </g>
                    <g id="d1" serif:id="d" transform="matrix(1,0,0,1,82.6875,676.668)">
                        <path d="M14.297,-11.609C13.848,-11.816 13.406,-11.968 12.969,-12.062C12.531,-12.164 12.086,-12.218 11.641,-12.218C10.328,-12.218 9.317,-11.796 8.61,-10.953C7.899,-10.117 7.547,-8.914 7.547,-7.343L7.547,0L2.453,0L2.453,-15.953L7.547,-15.953L7.547,-13.328C8.203,-14.378 8.953,-15.144 9.797,-15.624C10.649,-16.101 11.672,-16.343 12.86,-16.343C13.035,-16.343 13.223,-16.332 13.422,-16.312C13.617,-16.3 13.906,-16.269 14.281,-16.218L14.297,-11.609Z" style="fill-rule:nonzero;"/>
                    </g>
                    <g id="b1" serif:id="b" transform="matrix(1,0,0,1,97.0742,676.668)">
                        <path d="M10.047,-12.688C8.91,-12.688 8.047,-12.282 7.453,-11.469C6.859,-10.657 6.563,-9.489 6.563,-7.969C6.563,-6.438 6.859,-5.266 7.453,-4.454C8.047,-3.641 8.91,-3.235 10.047,-3.235C11.149,-3.235 11.992,-3.641 12.578,-4.454C13.172,-5.266 13.469,-6.438 13.469,-7.969C13.469,-9.489 13.172,-10.657 12.578,-11.469C11.992,-12.282 11.149,-12.688 10.047,-12.688ZM10.047,-16.344C12.785,-16.344 14.926,-15.598 16.469,-14.11C18.008,-12.629 18.781,-10.583 18.781,-7.969C18.781,-5.344 18.008,-3.289 16.469,-1.813C14.926,-0.332 12.785,0.406 10.047,0.406C7.285,0.406 5.129,-0.332 3.578,-1.813C2.024,-3.29 1.25,-5.344 1.25,-7.969C1.25,-10.583 2.024,-12.629 3.578,-14.11C5.129,-15.598 7.285,-16.344 10.047,-16.344Z" style="fill-rule:nonzero;"/>
                    </g>
                    <g id="e1" serif:id="e" transform="matrix(1,0,0,1,117.109,676.668)">
                        <path d="M17.234,-13.297C17.879,-14.285 18.644,-15.039 19.531,-15.563C20.425,-16.082 21.406,-16.344 22.468,-16.344C24.3,-16.344 25.695,-15.774 26.656,-14.641C27.613,-13.516 28.093,-11.875 28.093,-9.719L28.093,-0L22.968,-0L22.968,-8.703C22.976,-8.836 22.984,-9.023 22.984,-9.266C22.984,-10.398 22.816,-11.219 22.484,-11.719C22.16,-12.227 21.625,-12.484 20.875,-12.484C19.906,-12.484 19.156,-12.082 18.625,-11.281C18.101,-10.488 17.832,-9.336 17.812,-7.828L17.812,-0L12.687,-0L12.687,-8.313C12.687,-10.082 12.535,-11.219 12.234,-11.719C11.929,-12.227 11.39,-12.484 10.609,-12.484C9.629,-12.484 8.875,-12.082 8.343,-11.281C7.812,-10.477 7.547,-9.332 7.547,-7.844L7.547,-0L2.422,-0L2.422,-15.953L7.547,-15.953L7.547,-13.625C8.172,-14.519 8.89,-15.195 9.703,-15.656C10.515,-16.113 11.41,-16.344 12.39,-16.344C13.492,-16.344 14.468,-16.078 15.312,-15.547C16.156,-15.015 16.797,-14.266 17.234,-13.297L17.234,-13.297Z" style="fill-rule:nonzero;"/>
                    </g>
                    <g id="c1" serif:id="c" transform="matrix(1,0,0,1,157.656,676.668)">
                        <path d="M8.016,-20.484L8.016,-15.953L13.281,-15.953L13.281,-12.312L8.016,-12.312L8.016,-5.547C8.016,-4.804 8.16,-4.301 8.453,-4.031C8.754,-3.769 9.344,-3.64 10.219,-3.64L12.828,-3.64L12.828,0L8.469,0C6.445,0 5.016,-0.414 4.172,-1.25C3.336,-2.094 2.922,-3.523 2.922,-5.547L2.922,-12.312L0.391,-12.312L0.391,-15.953L2.922,-15.953L2.922,-20.484L8.016,-20.484Z" style="fill-rule:nonzero;"/>
                    </g>
                    <g id="q" transform="matrix(1,0,0,1,171.598,676.668)">
                        <path d="M18.484,-9.719L18.484,0L13.359,0L13.359,-7.406C13.359,-8.801 13.328,-9.758 13.265,-10.281C13.203,-10.801 13.097,-11.187 12.953,-11.437C12.754,-11.769 12.484,-12.023 12.14,-12.203C11.797,-12.391 11.406,-12.484 10.968,-12.484C9.906,-12.484 9.066,-12.07 8.453,-11.25C7.847,-10.437 7.547,-9.301 7.547,-7.844L7.547,0L2.453,0L2.453,-22.156L7.547,-22.156L7.547,-13.625C8.316,-14.55 9.132,-15.234 10,-15.672C10.863,-16.117 11.816,-16.343 12.859,-16.343C14.703,-16.343 16.097,-15.773 17.047,-14.64C18.004,-13.515 18.484,-11.875 18.484,-9.718L18.484,-9.719Z" style="fill-rule:nonzero;"/>
                    </g>
                    <g id="a4" serif:id="a" transform="matrix(1,0,0,1,192.363,676.668)">
                        <path d="M18.375,-8.016L18.375,-6.562L6.453,-6.562C6.578,-5.363 7.008,-4.469 7.75,-3.875C8.488,-3.281 9.523,-2.984 10.859,-2.984C11.93,-2.984 13.031,-3.141 14.156,-3.453C15.281,-3.773 16.437,-4.258 17.625,-4.906L17.625,-0.969C16.414,-0.508 15.207,-0.164 14,0.062C12.789,0.289 11.586,0.406 10.391,0.406C7.492,0.406 5.242,-0.32 3.641,-1.781C2.047,-3.25 1.25,-5.312 1.25,-7.969C1.25,-10.563 2.035,-12.602 3.609,-14.094C5.18,-15.594 7.344,-16.344 10.094,-16.344C12.602,-16.344 14.609,-15.586 16.109,-14.078C17.617,-12.566 18.375,-10.547 18.375,-8.016ZM13.141,-9.719C13.141,-10.687 12.852,-11.469 12.281,-12.062C11.719,-12.656 10.984,-12.953 10.078,-12.953C9.086,-12.953 8.281,-12.672 7.656,-12.109C7.039,-11.555 6.66,-10.758 6.516,-9.719L13.141,-9.719Z" style="fill-rule:nonzero;"/>
                    </g>
                    <g id="p" transform="matrix(1,0,0,1,222.301,676.668)">
                        <path d="M2.672,-21.266L8.797,-21.266L16.531,-6.688L16.531,-21.266L21.734,-21.266L21.734,0L15.609,0L7.875,-14.594L7.875,0L2.672,0L2.672,-21.266Z" style="fill-rule:nonzero;"/>
                    </g>
                    <g id="b2" serif:id="b" transform="matrix(1,0,0,1,246.711,676.668)">
                        <path d="M10.047,-12.688C8.91,-12.688 8.047,-12.282 7.453,-11.469C6.859,-10.657 6.563,-9.489 6.563,-7.969C6.563,-6.438 6.859,-5.266 7.453,-4.454C8.047,-3.641 8.91,-3.235 10.047,-3.235C11.149,-3.235 11.992,-3.641 12.578,-4.454C13.172,-5.266 13.469,-6.438 13.469,-7.969C13.469,-9.489 13.172,-10.657 12.578,-11.469C11.992,-12.282 11.149,-12.688 10.047,-12.688ZM10.047,-16.344C12.785,-16.344 14.926,-15.598 16.469,-14.11C18.008,-12.629 18.781,-10.583 18.781,-7.969C18.781,-5.344 18.008,-3.289 16.469,-1.813C14.926,-0.332 12.785,0.406 10.047,0.406C7.285,0.406 5.129,-0.332 3.578,-1.813C2.024,-3.29 1.25,-5.344 1.25,-7.969C1.25,-10.583 2.024,-12.629 3.578,-14.11C5.129,-15.598 7.285,-16.344 10.047,-16.344Z" style="fill-rule:nonzero;"/>
                    </g>
                    <g id="o" transform="matrix(1,0,0,1,266.746,676.668)">
                        <path d="M2.281,-6.203L2.281,-15.953L7.406,-15.953L7.406,-14.359C7.406,-13.492 7.398,-12.406 7.391,-11.094C7.379,-9.789 7.375,-8.922 7.375,-8.484C7.375,-7.203 7.406,-6.281 7.469,-5.719C7.539,-5.156 7.656,-4.742 7.812,-4.484C8.031,-4.148 8.305,-3.894 8.641,-3.719C8.973,-3.539 9.359,-3.453 9.797,-3.453C10.859,-3.453 11.691,-3.859 12.297,-4.672C12.91,-5.484 13.219,-6.617 13.219,-8.078L13.219,-15.953L18.312,-15.953L18.312,-0L13.219,-0L13.219,-2.313C12.445,-1.375 11.629,-0.688 10.766,-0.25C9.91,0.187 8.969,0.406 7.937,0.406C6.094,0.406 4.687,-0.156 3.719,-1.281C2.758,-2.414 2.281,-4.055 2.281,-6.203L2.281,-6.203Z" style="fill-rule:nonzero;"/>
                    </g>
                    <g id="n" transform="matrix(1,0,0,1,287.512,676.668)">
                        <path d="M18.484,-9.719L18.484,0L13.359,0L13.359,-7.438C13.359,-8.813 13.328,-9.758 13.265,-10.281C13.203,-10.801 13.097,-11.188 12.953,-11.438C12.754,-11.77 12.484,-12.023 12.14,-12.203C11.797,-12.391 11.406,-12.484 10.968,-12.484C9.906,-12.484 9.066,-12.07 8.453,-11.25C7.847,-10.437 7.547,-9.301 7.547,-7.844L7.547,0L2.453,0L2.453,-15.953L7.547,-15.953L7.547,-13.625C8.316,-14.551 9.132,-15.234 10,-15.672C10.863,-16.117 11.816,-16.344 12.859,-16.344C14.703,-16.344 16.097,-15.773 17.047,-14.641C18.004,-13.516 18.484,-11.875 18.484,-9.719L18.484,-9.719Z" style="fill-rule:nonzero;"/>
                    </g>
                    <g id="m" transform="matrix(1,0,0,1,318.43,676.668)">
                        <path d="M2.672,-21.266L11.781,-21.266C14.488,-21.266 16.567,-20.661 18.016,-19.453C19.461,-18.254 20.188,-16.547 20.188,-14.328C20.188,-12.098 19.461,-10.379 18.016,-9.172C16.567,-7.973 14.488,-7.375 11.781,-7.375L8.156,-7.375L8.156,-0L2.672,-0L2.672,-21.266ZM8.156,-17.297L8.156,-11.36L11.203,-11.36C12.266,-11.36 13.082,-11.614 13.656,-12.125C14.238,-12.645 14.531,-13.379 14.531,-14.328C14.531,-15.274 14.238,-16.004 13.656,-16.516C13.082,-17.035 12.266,-17.297 11.203,-17.297L8.156,-17.297Z" style="fill-rule:nonzero;"/>
                    </g>
                    <g id="d2" serif:id="d" transform="matrix(1,0,0,1,339.805,676.668)">
                        <path d="M14.297,-11.609C13.848,-11.816 13.406,-11.968 12.969,-12.062C12.531,-12.164 12.086,-12.218 11.641,-12.218C10.328,-12.218 9.317,-11.796 8.61,-10.953C7.899,-10.117 7.547,-8.914 7.547,-7.343L7.547,0L2.453,0L2.453,-15.953L7.547,-15.953L7.547,-13.328C8.203,-14.378 8.953,-15.144 9.797,-15.624C10.649,-16.101 11.672,-16.343 12.86,-16.343C13.035,-16.343 13.223,-16.332 13.422,-16.312C13.617,-16.3 13.906,-16.269 14.281,-16.218L14.297,-11.609Z" style="fill-rule:nonzero;"/>
                    </g>
                    <g id="b3" serif:id="b" transform="matrix(1,0,0,1,354.191,676.668)">
                        <path d="M10.047,-12.688C8.91,-12.688 8.047,-12.282 7.453,-11.469C6.859,-10.657 6.563,-9.489 6.563,-7.969C6.563,-6.438 6.859,-5.266 7.453,-4.454C8.047,-3.641 8.91,-3.235 10.047,-3.235C11.149,-3.235 11.992,-3.641 12.578,-4.454C13.172,-5.266 13.469,-6.438 13.469,-7.969C13.469,-9.489 13.172,-10.657 12.578,-11.469C11.992,-12.282 11.149,-12.688 10.047,-12.688ZM10.047,-16.344C12.785,-16.344 14.926,-15.598 16.469,-14.11C18.008,-12.629 18.781,-10.583 18.781,-7.969C18.781,-5.344 18.008,-3.289 16.469,-1.813C14.926,-0.332 12.785,0.406 10.047,0.406C7.285,0.406 5.129,-0.332 3.578,-1.813C2.024,-3.29 1.25,-5.344 1.25,-7.969C1.25,-10.583 2.024,-12.629 3.578,-14.11C5.129,-15.598 7.285,-16.344 10.047,-16.344Z" style="fill-rule:nonzero;"/>
                    </g>
                    <g id="l" transform="matrix(1,0,0,1,374.227,676.668)">
                        <path d="M2.453,-15.953L7.547,-15.953L7.547,-0.281C7.547,1.852 7.031,3.485 6,4.61C4.977,5.735 3.492,6.297 1.547,6.297L-0.969,6.297L-0.969,2.953L-0.078,2.953C0.891,2.953 1.551,2.735 1.906,2.297C2.27,1.86 2.453,1 2.453,-0.281L2.453,-15.953ZM2.453,-22.156L7.547,-22.156L7.547,-18L2.453,-18L2.453,-22.156Z" style="fill-rule:nonzero;"/>
                    </g>
                    <g id="a5" serif:id="a" transform="matrix(1,0,0,1,384.227,676.668)">
                        <path d="M18.375,-8.016L18.375,-6.562L6.453,-6.562C6.578,-5.363 7.008,-4.469 7.75,-3.875C8.488,-3.281 9.523,-2.984 10.859,-2.984C11.93,-2.984 13.031,-3.141 14.156,-3.453C15.281,-3.773 16.437,-4.258 17.625,-4.906L17.625,-0.969C16.414,-0.508 15.207,-0.164 14,0.062C12.789,0.289 11.586,0.406 10.391,0.406C7.492,0.406 5.242,-0.32 3.641,-1.781C2.047,-3.25 1.25,-5.312 1.25,-7.969C1.25,-10.563 2.035,-12.602 3.609,-14.094C5.18,-15.594 7.344,-16.344 10.094,-16.344C12.602,-16.344 14.609,-15.586 16.109,-14.078C17.617,-12.566 18.375,-10.547 18.375,-8.016ZM13.141,-9.719C13.141,-10.687 12.852,-11.469 12.281,-12.062C11.719,-12.656 10.984,-12.953 10.078,-12.953C9.086,-12.953 8.281,-12.672 7.656,-12.109C7.039,-11.555 6.66,-10.758 6.516,-9.719L13.141,-9.719Z" style="fill-rule:nonzero;"/>
                    </g>
                    <g id="k" transform="matrix(1,0,0,1,404.008,676.668)">
                        <path d="M15.344,-15.453L15.344,-11.297C14.645,-11.766 13.946,-12.113 13.25,-12.344C12.551,-12.57 11.828,-12.687 11.078,-12.687C9.649,-12.687 8.539,-12.269 7.75,-11.437C6.957,-10.613 6.563,-9.457 6.563,-7.969C6.563,-6.469 6.957,-5.301 7.75,-4.469C8.539,-3.644 9.649,-3.234 11.078,-3.234C11.879,-3.234 12.633,-3.351 13.344,-3.594C14.063,-3.832 14.727,-4.18 15.344,-4.641L15.344,-0.469C14.539,-0.176 13.727,0.039 12.906,0.188C12.094,0.332 11.27,0.406 10.438,0.406C7.563,0.406 5.313,-0.328 3.688,-1.797C2.063,-3.273 1.25,-5.332 1.25,-7.969C1.25,-10.594 2.063,-12.644 3.688,-14.125C5.313,-15.601 7.563,-16.344 10.438,-16.344C11.27,-16.344 12.094,-16.266 12.906,-16.109C13.719,-15.961 14.531,-15.742 15.344,-15.453L15.344,-15.453Z" style="fill-rule:nonzero;"/>
                    </g>
                    <g id="c2" serif:id="c" transform="matrix(1,0,0,1,421.297,676.668)">
                        <path d="M8.016,-20.484L8.016,-15.953L13.281,-15.953L13.281,-12.312L8.016,-12.312L8.016,-5.547C8.016,-4.804 8.16,-4.301 8.453,-4.031C8.754,-3.769 9.344,-3.64 10.219,-3.64L12.828,-3.64L12.828,0L8.469,0C6.445,0 5.016,-0.414 4.172,-1.25C3.336,-2.094 2.922,-3.523 2.922,-5.547L2.922,-12.312L0.391,-12.312L0.391,-15.953L2.922,-15.953L2.922,-20.484L8.016,-20.484Z" style="fill-rule:nonzero;"/>
                    </g>
                </g>
            </g>
        </g>
        <path d="M780,240C780,140.655 699.345,60 600,60L240,60C140.655,60 60,140.655 60,240L60,600C60,699.345 140.655,780 240,780L600,780C699.345,780 780,699.345 780,600L780,240Z" style="stroke:black;stroke-width:42px;"/>
        <g transform="matrix(0.680182,0,0,0.680182,129.217,144.968)">
            <path d="M249.717,300L620,300L620,580C620,580 620,640 560,640L320,640C320,640 259.433,640 249.717,580L249.717,300Z" style="fill:none;stroke:white;stroke-width:38.23px;"/>
            <path d="M350.595,340L349.59,220C349.59,220 358.18,140 434.858,140C434.858,140 517.952,130.596 528.976,220L528.976,340" style="fill:none;stroke:white;stroke-width:47.05px;"/>
        </g>
    </g>
</svg>
