
<svg width="100%" height="10%" viewBox="0 0 265 265" ="fill-rule:evenodd;clip-rule:evenodd;stroke-linecap:round;stroke-linejoin:round;stroke-miterlimit:1.5;">
    <rect id="Artboard1" x="0" y="0" width="265" height="265" style="fill:none;"/>
    <g id="Artboard11" serif:id="Artboard1">
        <g transform="matrix(1.0617,0,0,1.0617,-21.0258,-36.3569)">
            <circle cx="144.603" cy="159.043" r="109.043" style="fill:rgb(235,235,235);fill-opacity:.3;stroke:white;stroke-width:4.71px;"/>
        </g>
        <path d="M132.5,82.5C160.096,82.5 182.5,104.904 182.5,132.5C182.5,160.096 160.096,182.5 132.5,182.5C104.904,182.5 82.5,160.096 82.5,132.5C82.5,104.904 104.904,82.5 132.5,82.5ZM141.416,132.5L150.637,123.279C151.867,122.049 151.867,120.051 150.637,118.821L146.179,114.363C144.949,113.133 142.951,113.133 141.721,114.363L132.5,123.584L123.279,114.363C122.049,113.133 120.051,113.133 118.821,114.363L114.363,118.821C113.133,120.051 113.133,122.049 114.363,123.279L123.584,132.5L114.363,141.721C113.133,142.951 113.133,144.949 114.363,146.179L118.821,150.637C120.051,151.867 122.049,151.867 123.279,150.637L132.5,141.416L141.721,150.637C142.951,151.867 144.949,151.867 146.179,150.637L150.637,146.179C151.867,144.949 151.867,142.951 150.637,141.721L141.416,132.5Z" style="fill:white;stroke:white;stroke-width:5px;"/>
    </g>
</svg>
