<?xml version="1.0" encoding="UTF-8" standalone="no"?>
<!DOCTYPE svg PUBLIC "-//W3C//DTD SVG 1.1//EN" "http://www.w3.org/Graphics/SVG/1.1/DTD/svg11.dtd">
<svg width="100%" height="100%" viewBox="0 0 256 256" version="1.1" xmlns="http://www.w3.org/2000/svg" xmlns:xlink="http://www.w3.org/1999/xlink" xml:space="preserve" xmlns:serif="http://www.serif.com/" style="fill-rule:evenodd;clip-rule:evenodd;stroke-linecap:round;stroke-linejoin:round;stroke-miterlimit:1.5;">
    <g transform="matrix(1.16281,9.86076e-32,-9.86076e-32,1.16281,-35.2738,-44.807)">
        <circle cx="142.133" cy="147.867" r="92.133" style="fill:white;"/>
    </g>
    <g transform="matrix(1,0,0,1,-3.31011,9.84941)">
        <ellipse cx="133.31" cy="120.151" rx="26.69" ry="26.761" style="fill:white;stroke:rgb(148,148,148);stroke-width:3px;"/>
    </g>
    <g transform="matrix(0.0707409,0.997495,-0.997495,0.0707409,252.265,-13.0074)">
        <path d="M134,114.15L140,132.075L134,150L128,132.075L134,114.15Z" style="fill:white;stroke:rgb(148,148,148);stroke-width:3px;"/>
    </g>
    <g transform="matrix(1,-7.34788e-16,7.34788e-16,1,5.11264,5.8955)">
        <g>
            <g transform="matrix(0.297982,0.954572,-0.954572,0.297982,232.955,-146.309)">
                <text x="215.95px" y="85.226px" style="font-family:'HelveticaNeue-Medium', 'Helvetica Neue', sans-serif;font-weight:500;font-size:24px;fill:rgb(130,130,130);">E</text>
            </g>
            <g transform="matrix(0.149663,0.988737,-0.988737,0.149663,286.056,-133.279)">
                <text x="220.513px" y="99.668px" style="font-family:'HelveticaNeue-Medium', 'Helvetica Neue', sans-serif;font-weight:500;font-size:24px;fill:rgb(130,130,130);">X</text>
            </g>
            <g transform="matrix(-0.015062,0.999887,-0.999887,-0.015062,341.331,-106.055)">
                <text x="222.9px" y="115.087px" style="font-family:'HelveticaNeue-Medium', 'Helvetica Neue', sans-serif;font-weight:500;font-size:24px;fill:rgb(130,130,130);">P</text>
            </g>
            <g transform="matrix(-0.168298,0.985736,-0.985736,-0.168298,389.383,-66.3371)">
                <text x="222.677px" y="131.1px" style="font-family:'HelveticaNeue-Medium', 'Helvetica Neue', sans-serif;font-weight:500;font-size:24px;fill:rgb(130,130,130);">L</text>
            </g>
            <g transform="matrix(-0.320058,0.947398,-0.947398,-0.320058,428.338,-17.8617)">
                <text x="220.579px" y="144.777px" style="font-family:'HelveticaNeue-Medium', 'Helvetica Neue', sans-serif;font-weight:500;font-size:24px;fill:rgb(130,130,130);">O</text>
            </g>
            <g transform="matrix(-0.490454,0.871467,-0.871467,-0.490454,461.289,54.4998)">
                <text x="214.711px" y="162.108px" style="font-family:'HelveticaNeue-Medium', 'Helvetica Neue', sans-serif;font-weight:500;font-size:24px;fill:rgb(130,130,130);">R</text>
            </g>
            <g transform="matrix(-0.624413,0.781095,-0.781095,-0.624413,473.471,126.041)">
                <text x="206.432px" y="176.854px" style="font-family:'HelveticaNeue-Medium', 'Helvetica Neue', sans-serif;font-weight:500;font-size:24px;fill:rgb(130,130,130);">E</text>
            </g>
            <g transform="matrix(-0.796699,0.604376,-0.604376,-0.796699,462.879,231.686)">
                <text x="192.472px" y="193.695px" style="font-family:'HelveticaNeue-Medium', 'Helvetica Neue', sans-serif;font-weight:500;font-size:24px;fill:rgb(130,130,130);">M</text>
            </g>
            <g transform="matrix(-0.901756,0.432246,-0.432246,-0.901756,422.704,316.914)">
                <text x="175.337px" y="206.495px" style="font-family:'HelveticaNeue-Medium', 'Helvetica Neue', sans-serif;font-weight:500;font-size:24px;fill:rgb(130,130,130);">O</text>
            </g>
            <g transform="matrix(-0.966427,0.256942,-0.256942,-0.966427,367.434,380.776)">
                <text x="158.84px" y="214.393px" style="font-family:'HelveticaNeue-Medium', 'Helvetica Neue', sans-serif;font-weight:500;font-size:24px;fill:rgb(130,130,130);">R</text>
            </g>
            <g transform="matrix(-0.995338,0.0964482,-0.0964482,-0.995338,305.367,422.762)">
                <text x="142.466px" y="218.761px" style="font-family:'HelveticaNeue-Medium', 'Helvetica Neue', sans-serif;font-weight:500;font-size:24px;fill:rgb(130,130,130);">E</text>
            </g>
        </g>
    </g>
    <g transform="matrix(-1,6.12323e-16,-6.12323e-16,-1,254.887,250.105)">
        <g>
            <g transform="matrix(0.297982,0.954572,-0.954572,0.297982,232.955,-146.309)">
                <text x="215.95px" y="85.226px" style="font-family:'HelveticaNeue-Medium', 'Helvetica Neue', sans-serif;font-weight:500;font-size:24px;fill:rgb(130,130,130);">E</text>
            </g>
            <g transform="matrix(0.149663,0.988737,-0.988737,0.149663,286.056,-133.279)">
                <text x="220.513px" y="99.668px" style="font-family:'HelveticaNeue-Medium', 'Helvetica Neue', sans-serif;font-weight:500;font-size:24px;fill:rgb(130,130,130);">X</text>
            </g>
            <g transform="matrix(-0.015062,0.999887,-0.999887,-0.015062,341.331,-106.055)">
                <text x="222.9px" y="115.087px" style="font-family:'HelveticaNeue-Medium', 'Helvetica Neue', sans-serif;font-weight:500;font-size:24px;fill:rgb(130,130,130);">P</text>
            </g>
            <g transform="matrix(-0.168298,0.985736,-0.985736,-0.168298,389.383,-66.3371)">
                <text x="222.677px" y="131.1px" style="font-family:'HelveticaNeue-Medium', 'Helvetica Neue', sans-serif;font-weight:500;font-size:24px;fill:rgb(130,130,130);">L</text>
            </g>
            <g transform="matrix(-0.320058,0.947398,-0.947398,-0.320058,428.338,-17.8617)">
                <text x="220.579px" y="144.777px" style="font-family:'HelveticaNeue-Medium', 'Helvetica Neue', sans-serif;font-weight:500;font-size:24px;fill:rgb(130,130,130);">O</text>
            </g>
            <g transform="matrix(-0.490454,0.871467,-0.871467,-0.490454,461.289,54.4998)">
                <text x="214.711px" y="162.108px" style="font-family:'HelveticaNeue-Medium', 'Helvetica Neue', sans-serif;font-weight:500;font-size:24px;fill:rgb(130,130,130);">R</text>
            </g>
            <g transform="matrix(-0.624413,0.781095,-0.781095,-0.624413,473.471,126.041)">
                <text x="206.432px" y="176.854px" style="font-family:'HelveticaNeue-Medium', 'Helvetica Neue', sans-serif;font-weight:500;font-size:24px;fill:rgb(130,130,130);">E</text>
            </g>
            <g transform="matrix(-0.796699,0.604376,-0.604376,-0.796699,462.879,231.686)">
                <text x="192.472px" y="193.695px" style="font-family:'HelveticaNeue-Medium', 'Helvetica Neue', sans-serif;font-weight:500;font-size:24px;fill:rgb(130,130,130);">M</text>
            </g>
            <g transform="matrix(-0.901756,0.432246,-0.432246,-0.901756,422.704,316.914)">
                <text x="175.337px" y="206.495px" style="font-family:'HelveticaNeue-Medium', 'Helvetica Neue', sans-serif;font-weight:500;font-size:24px;fill:rgb(130,130,130);">O</text>
            </g>
            <g transform="matrix(-0.966427,0.256942,-0.256942,-0.966427,367.434,380.776)">
                <text x="158.84px" y="214.393px" style="font-family:'HelveticaNeue-Medium', 'Helvetica Neue', sans-serif;font-weight:500;font-size:24px;fill:rgb(130,130,130);">R</text>
            </g>
            <g transform="matrix(-0.995338,0.0964482,-0.0964482,-0.995338,305.367,422.762)">
                <text x="142.466px" y="218.761px" style="font-family:'HelveticaNeue-Medium', 'Helvetica Neue', sans-serif;font-weight:500;font-size:24px;fill:rgb(130,130,130);">E</text>
            </g>
        </g>
    </g>
</svg>
