<?xml version="1.0" encoding="UTF-8" standalone="no"?>
<!DOCTYPE svg PUBLIC "-//W3C//DTD SVG 1.1//EN" "http://www.w3.org/Graphics/SVG/1.1/DTD/svg11.dtd">
<svg width="100%" height="100%" viewBox="0 0 256 256" version="1.1" xmlns="http://www.w3.org/2000/svg" xmlns:xlink="http://www.w3.org/1999/xlink" xml:space="preserve" xmlns:serif="http://www.serif.com/" style="fill-rule:evenodd;clip-rule:evenodd;stroke-linecap:round;stroke-linejoin:round;stroke-miterlimit:1.5;">
    <g transform="matrix(1.16281,9.86076e-32,-9.86076e-32,1.16281,-35.2738,-44.807)">
        <circle cx="142.133" cy="147.867" r="92.133" style="fill:white;"/>
    </g>
    <g transform="matrix(1,0,0,1,-3.31011,9.84941)">
        <ellipse cx="133.31" cy="120.151" rx="26.69" ry="26.761" style="fill:white;stroke:rgb(148,148,148);stroke-width:5px;"/>
    </g>
    <g transform="matrix(0.0707409,0.997495,-0.997495,0.0707409,252.265,-13.0074)">
        <path d="M134,114.15L140,132.075L134,150L128,132.075L134,114.15Z" style="fill:white;stroke:rgb(148,148,148);stroke-width:5px;"/>
    </g>
    <g transform="matrix(1,-7.34788e-16,7.34788e-16,1,5.11264,5.8955)">
        <g>
            <g transform="matrix(0.297242,0.954802,-0.954802,0.297242,233.127,-146.307)">
                <text x="215.953px" y="85.216px" style="font-family:'HelveticaNeue-Bold', 'Helvetica Neue';font-weight:700;font-size:24px;fill:rgb(130,130,130);">E</text>
            </g>
            <g transform="matrix(0.143043,0.989716,-0.989716,0.143043,288.107,-132.603)">
                <text x="220.626px" y="100.069px" style="font-family:'HelveticaNeue-Bold', 'Helvetica Neue';font-weight:700;font-size:24px;fill:rgb(130,130,130);">X</text>
            </g>
            <g transform="matrix(-0.0233829,0.999727,-0.999727,-0.0233829,344.087,-104.231)">
                <text x="222.954px" y="115.951px" style="font-family:'HelveticaNeue-Bold', 'Helvetica Neue';font-weight:700;font-size:24px;fill:rgb(130,130,130);">P</text>
            </g>
            <g transform="matrix(-0.177582,0.984106,-0.984106,-0.177582,392.009,-63.639)">
                <text x="222.596px" y="131.981px" style="font-family:'HelveticaNeue-Bold', 'Helvetica Neue';font-weight:700;font-size:24px;fill:rgb(130,130,130);">L</text>
            </g>
            <g transform="matrix(-0.335373,0.942086,-0.942086,-0.335373,431.796,-12.4072)">
                <text x="220.275px" y="146.109px" style="font-family:'HelveticaNeue-Bold', 'Helvetica Neue';font-weight:700;font-size:24px;fill:rgb(130,130,130);">O</text>
            </g>
            <g transform="matrix(-0.505845,0.862625,-0.862625,-0.505845,463.435,61.9703)">
                <text x="213.968px" y="163.725px" style="font-family:'HelveticaNeue-Bold', 'Helvetica Neue';font-weight:700;font-size:24px;fill:rgb(130,130,130);">R</text>
            </g>
            <g transform="matrix(-0.642595,0.766206,-0.766206,-0.642595,473.928,136.333)">
                <text x="205.167px" y="178.701px" style="font-family:'HelveticaNeue-Bold', 'Helvetica Neue';font-weight:700;font-size:24px;fill:rgb(130,130,130);">E</text>
            </g>
            <g transform="matrix(-0.813993,0.580875,-0.580875,-0.813993,459.178,244.004)">
                <text x="190.521px" y="195.521px" style="font-family:'HelveticaNeue-Bold', 'Helvetica Neue';font-weight:700;font-size:24px;fill:rgb(130,130,130);">M</text>
            </g>
            <g transform="matrix(-0.91591,0.401383,-0.401383,-0.91591,414.31,329.339)">
                <text x="172.657px" y="208.068px" style="font-family:'HelveticaNeue-Bold', 'Helvetica Neue';font-weight:700;font-size:24px;fill:rgb(130,130,130);">O</text>
            </g>
            <g transform="matrix(-0.975024,0.222101,-0.222101,-0.975024,354.988,391.185)">
                <text x="155.499px" y="215.552px" style="font-family:'HelveticaNeue-Bold', 'Helvetica Neue';font-weight:700;font-size:24px;fill:rgb(130,130,130);">R</text>
            </g>
            <g transform="matrix(-0.99844,0.0558348,-0.0558348,-0.99844,289.187,430.7)">
                <text x="138.577px" y="219.39px" style="font-family:'HelveticaNeue-Bold', 'Helvetica Neue';font-weight:700;font-size:24px;fill:rgb(130,130,130);">E</text>
            </g>
        </g>
    </g>
    <g transform="matrix(-1,6.12323e-16,-6.12323e-16,-1,254.887,250.105)">
        <g>
            <g transform="matrix(0.297242,0.954802,-0.954802,0.297242,233.127,-146.307)">
                <text x="215.953px" y="85.216px" style="font-family:'HelveticaNeue-Bold', 'Helvetica Neue';font-weight:700;font-size:24px;fill:rgb(130,130,130);">E</text>
            </g>
            <g transform="matrix(0.143043,0.989716,-0.989716,0.143043,288.107,-132.603)">
                <text x="220.626px" y="100.069px" style="font-family:'HelveticaNeue-Bold', 'Helvetica Neue';font-weight:700;font-size:24px;fill:rgb(130,130,130);">X</text>
            </g>
            <g transform="matrix(-0.0233829,0.999727,-0.999727,-0.0233829,344.087,-104.231)">
                <text x="222.954px" y="115.951px" style="font-family:'HelveticaNeue-Bold', 'Helvetica Neue';font-weight:700;font-size:24px;fill:rgb(130,130,130);">P</text>
            </g>
            <g transform="matrix(-0.177582,0.984106,-0.984106,-0.177582,392.009,-63.639)">
                <text x="222.596px" y="131.981px" style="font-family:'HelveticaNeue-Bold', 'Helvetica Neue';font-weight:700;font-size:24px;fill:rgb(130,130,130);">L</text>
            </g>
            <g transform="matrix(-0.335373,0.942086,-0.942086,-0.335373,431.796,-12.4072)">
                <text x="220.275px" y="146.109px" style="font-family:'HelveticaNeue-Bold', 'Helvetica Neue';font-weight:700;font-size:24px;fill:rgb(130,130,130);">O</text>
            </g>
            <g transform="matrix(-0.505845,0.862625,-0.862625,-0.505845,463.435,61.9703)">
                <text x="213.968px" y="163.725px" style="font-family:'HelveticaNeue-Bold', 'Helvetica Neue';font-weight:700;font-size:24px;fill:rgb(130,130,130);">R</text>
            </g>
            <g transform="matrix(-0.642595,0.766206,-0.766206,-0.642595,473.928,136.333)">
                <text x="205.167px" y="178.701px" style="font-family:'HelveticaNeue-Bold', 'Helvetica Neue';font-weight:700;font-size:24px;fill:rgb(130,130,130);">E</text>
            </g>
            <g transform="matrix(-0.813993,0.580875,-0.580875,-0.813993,459.178,244.004)">
                <text x="190.521px" y="195.521px" style="font-family:'HelveticaNeue-Bold', 'Helvetica Neue';font-weight:700;font-size:24px;fill:rgb(130,130,130);">M</text>
            </g>
            <g transform="matrix(-0.91591,0.401383,-0.401383,-0.91591,414.31,329.339)">
                <text x="172.657px" y="208.068px" style="font-family:'HelveticaNeue-Bold', 'Helvetica Neue';font-weight:700;font-size:24px;fill:rgb(130,130,130);">O</text>
            </g>
            <g transform="matrix(-0.975024,0.222101,-0.222101,-0.975024,354.988,391.185)">
                <text x="155.499px" y="215.552px" style="font-family:'HelveticaNeue-Bold', 'Helvetica Neue';font-weight:700;font-size:24px;fill:rgb(130,130,130);">R</text>
            </g>
            <g transform="matrix(-0.99844,0.0558348,-0.0558348,-0.99844,289.187,430.7)">
                <text x="138.577px" y="219.39px" style="font-family:'HelveticaNeue-Bold', 'Helvetica Neue';font-weight:700;font-size:24px;fill:rgb(130,130,130);">E</text>
            </g>
        </g>
    </g>
</svg>
