<?xml version="1.0" encoding="UTF-8" standalone="no"?>
<svg width="100%" height="100%" viewBox="0 0 256 256" version="1.1" xmlns="http://www.w3.org/2000/svg" xmlns:xlink="http://www.w3.org/1999/xlink" xml:space="preserve" xmlns:serif="http://www.serif.com/" style="fill-rule:evenodd;clip-rule:evenodd;stroke-linejoin:round;stroke-miterlimit:2;">
    <g transform="matrix(1.72063e-16,-2.81,2.81,1.72063e-16,1.40659,254.307)">
        <path d="M75.116,0L14.884,0C6.677,0 0,6.677 0,14.884L0,75.116C0,83.323 6.677,90 14.884,90L75.116,90C83.323,90 90,83.323 90,75.116L90,14.884C90,6.677 83.323,0 75.116,0ZM76.022,69.496L54.754,69.496C53.528,72.821 50.336,75.202 46.591,75.202C42.846,75.202 39.655,72.821 38.428,69.496L13.977,69.496C12.32,69.496 10.977,68.153 10.977,66.496C10.977,64.839 12.32,63.496 13.977,63.496L38.428,63.496C39.654,60.171 42.845,57.789 46.591,57.789C50.337,57.789 53.528,60.171 54.754,63.496L76.022,63.496C77.679,63.496 79.022,64.839 79.022,66.496C79.022,68.153 77.68,69.496 76.022,69.496ZM76.022,48L35.135,48C33.909,51.325 30.718,53.706 26.972,53.706C23.226,53.706 20.036,51.325 18.81,48L13.978,48C12.321,48 10.978,46.657 10.978,45C10.978,43.343 12.321,42 13.978,42L18.81,42C20.036,38.675 23.227,36.293 26.973,36.293C30.719,36.293 33.91,38.675 35.136,42L76.024,42C77.681,42 79.024,43.343 79.024,45C79.022,46.657 77.68,48 76.022,48ZM76.022,26.504L67.784,26.504C66.558,29.829 63.366,32.211 59.621,32.211C55.876,32.211 52.685,29.829 51.459,26.504L13.977,26.504C12.32,26.504 10.977,25.161 10.977,23.504C10.977,21.847 12.32,20.504 13.977,20.504L51.459,20.504C52.685,17.179 55.876,14.797 59.621,14.797C63.366,14.797 66.558,17.179 67.784,20.504L76.022,20.504C77.679,20.504 79.022,21.847 79.022,23.504C79.022,25.161 77.68,26.504 76.022,26.504Z" style="fill-rule:nonzero;"/>
    </g>
</svg>
