<?xml version="1.0" encoding="UTF-8" standalone="no"?>
<!DOCTYPE svg PUBLIC "-//W3C//DTD SVG 1.1//EN" "http://www.w3.org/Graphics/SVG/1.1/DTD/svg11.dtd">
<svg width="100%" height="100%" viewBox="0 0 2500 2500" version="1.1" xmlns="http://www.w3.org/2000/svg" xmlns:xlink="http://www.w3.org/1999/xlink" xml:space="preserve" xmlns:serif="http://www.serif.com/" style="fill-rule:evenodd;clip-rule:evenodd;stroke-linejoin:round;stroke-miterlimit:2;">
    <g transform="matrix(1.13307,0,0,1.13307,-208.007,-197.91)">
        <path d="M554.341,927.04C426.186,1077.54 303.311,1264.18 302.079,1403.68C301.599,1456.17 318.356,1501.99 358.549,1536.7C416.394,1586.68 480.128,1604.31 543.55,1604.41C636.232,1604.54 728.265,1567.15 800.325,1538.32C921.683,1489.79 2263.18,907.222 2263.18,907.222C2276.13,900.737 2273.7,892.657 2257.5,896.691C2250.97,898.325 797.07,1292.33 797.07,1292.33C769.531,1300.12 741.074,1304.2 712.455,1304.45C600.721,1305.11 501.294,1243.09 502.099,1112.39C502.41,1061.25 518.064,999.58 554.341,927.04Z"/>
    </g>
</svg>
