<?xml version="1.0" encoding="UTF-8" standalone="no"?>
<!DOCTYPE svg PUBLIC "-//W3C//DTD SVG 1.1//EN" "http://www.w3.org/Graphics/SVG/1.1/DTD/svg11.dtd">
<svg width="100%" height="100%" viewBox="0 0 251 247" version="1.1" xmlns="http://www.w3.org/2000/svg" xmlns:xlink="http://www.w3.org/1999/xlink" xml:space="preserve" xmlns:serif="http://www.serif.com/" style="fill-rule:evenodd;clip-rule:evenodd;stroke-linejoin:round;stroke-miterlimit:2;">
    <g transform="matrix(1.02274,0,0,1.00702,-15.3411,-15.1053)">
        <circle cx="137.5" cy="137.5" r="122.5" style="fill:white;"/>
    </g>
    <g id="Artboard1" transform="matrix(1,0,0,1,-7.21425,-12.5294)">
        <path d="M132.5,36.518C187.345,36.518 231.871,81.045 231.871,135.89C231.871,190.734 187.345,235.261 132.5,235.261C77.655,235.261 33.129,190.734 33.129,135.89C33.129,81.045 77.655,36.518 132.5,36.518ZM138.75,129.64L138.75,91.514L126.25,91.514L126.25,129.64L88.125,129.64L88.125,142.14L126.25,142.14L126.25,180.265L138.75,180.265L138.75,142.14L176.875,142.14L176.875,129.64L138.75,129.64Z" style="fill:rgb(242,204,0);"/>
    </g>
</svg>
