<?xml version="1.0" encoding="UTF-8" standalone="no"?>
<!DOCTYPE svg PUBLIC "-//W3C//DTD SVG 1.1//EN" "http://www.w3.org/Graphics/SVG/1.1/DTD/svg11.dtd">
<svg width="100%" height="100%" viewBox="0 0 265 265" version="1.1" xmlns="http://www.w3.org/2000/svg" xmlns:xlink="http://www.w3.org/1999/xlink" xml:space="preserve" xmlns:serif="http://www.serif.com/" style="fill-rule:evenodd;clip-rule:evenodd;stroke-linecap:round;stroke-linejoin:round;stroke-miterlimit:1.5;">
    <rect id="Artboard1" x="0" y="0" width="265" height="265" style="fill:none;"/>
    <g id="Artboard11" serif:id="Artboard1">
        <g transform="matrix(1,0,0,1,132.5,132.5)">
            <g transform="matrix(1,0,0,1,-128,-128)">
                <g transform="matrix(2.81,0,0,2.81,1.40659,1.40659)">
                    <path d="M89.902,34.728C89.667,34.004 89.041,33.477 88.288,33.367L59.616,29.2L46.794,3.219C46.456,2.537 45.761,2.104 45,2.104C44.239,2.104 43.543,2.536 43.207,3.219L30.384,29.2L1.712,33.367C0.959,33.476 0.333,34.004 0.097,34.728C-0.138,35.452 0.058,36.247 0.603,36.778L21.35,57.001L16.452,85.558C16.323,86.308 16.632,87.067 17.247,87.514C17.863,87.961 18.68,88.02 19.353,87.666L45,74.184L70.645,87.666C70.938,87.819 71.257,87.895 71.576,87.895C71.99,87.895 72.403,87.766 72.752,87.513C73.367,87.066 73.676,86.307 73.548,85.557L68.651,57L89.398,36.777C89.941,36.247 90.138,35.452 89.902,34.728Z" style="fill:rgb(250,180,0);fill-rule:nonzero;"/>
                    <path d="M44.448,65.427L38.677,65.427C37.296,65.427 36.177,64.308 36.177,62.927C36.177,61.546 37.296,60.427 38.677,60.427L44.448,60.427C46.86,60.427 48.823,58.464 48.823,56.052C48.823,53.64 46.86,51.677 44.448,51.677L38.677,51.677C37.296,51.677 36.177,50.558 36.177,49.177L36.177,38.375C36.177,36.994 37.296,35.875 38.677,35.875L51.323,35.875C52.704,35.875 53.823,36.994 53.823,38.375C53.823,39.756 52.704,40.875 51.323,40.875L41.177,40.875L41.177,46.676L44.448,46.676C49.617,46.676 53.823,50.882 53.823,56.051C53.823,61.22 49.617,65.427 44.448,65.427Z" style="fill:white;fill-rule:nonzero;"/>
                </g>
            </g>
        </g>
        <path d="M108.363,109.406C107.951,110.232 110.141,110.995 110.642,111.241C113.052,112.426 115.518,113.295 117.908,114.552C119.665,115.475 122.024,116.311 123.346,117.901C123.593,118.199 123.292,119.084 123.51,119.52C124.786,122.072 126.378,123.46 129.32,123.209C132.431,122.943 132.243,120.528 134.158,119.648C135.784,118.9 137.552,119.691 139.214,119.691C139.957,119.691 140.782,118.638 141.493,118.229C141.733,118.091 142.18,117.487 142.18,117.764C142.18,118.237 140.57,119.521 140.289,119.798C137.501,122.549 132.84,123.193 129.366,124.496C127.152,125.327 124.434,126.235 122.592,127.818C120.517,129.601 120.413,134.227 118.552,136.456C117.611,137.584 115.955,138.791 115.579,140.296C115.014,142.554 116.168,145.037 116.891,147.05C117.656,149.178 118.096,153.979 120.333,155.336C122.347,156.557 126.819,155.476 128.915,155.076C133.767,154.15 138.285,153.444 143.228,153.907C144.768,154.051 148.615,154.049 149.451,155.721C152.397,161.613 148.041,164.592 145.016,168.987C144.575,169.627 144.806,170.868 144.421,171.637C142.638,175.203 139.041,176.976 135.381,177.433C131.965,177.86 128.462,177.712 125.037,178.114C124.327,178.197 119.25,179.209 120.739,178.464" style="fill:none;stroke:rgb(250,180,0);stroke-width:43px;"/>
    </g>
</svg>
